# xmcd
#
# Track frame offsets: 
#        150
#        9972
#        22721
#        34785
#        46912
#        61736
#        74866
#        87862
#        100265
#        113041
#        126082
#        140947
#        147331
#        159292
#        170951
#        184896
#        198556
#        210693
#        225596
#        236456
#
# Disc length: 3298 seconds
#
# Revision: 1
# Processed by: cddbd v1.5.2PL0 Copyright (c) Steve Scherf et al.
# Submitted via: ExactAudioCopy v0.99pb5
#
DISCID=180ce014
DTITLE=Various Artist - The ultimate Bluegrass album [CD2'2)
DYEAR=2002
DGENRE=Bluegrass
TTITLE0=The Monroe Brothers - Darling Corey
TTITLE1=Callahan Brothers - Somebody's been using that thing
TTITLE2=The Blue Sky Boys - When the roses bloom in Dixieland
TTITLE3=Roy Hall and His Blue Ridge Entertainers - Come back little pal
TTITLE4=Bill Monroe - Can't you hear me callin'
TTITLE5=The Monroe Brothers - My saviour's train
TTITLE6=Jimmie Rodgers - Peach pickin' time in Georgia
TTITLE7=Molly O'Day - Coming down from God
TTITLE8=Flatt and Scruggs - Doin' my time
TTITLE9=Luke Highnight's Ozark Strutters - There's no hell in Georgia
TTITLE10=Pope's Arkansas Mountaineers - Get along home, miss Cindy
TTITLE11=Katy Hill - Goin' around the world (Baby mine)
TTITLE12=Morris Brothers - Salty dog blues
TTITLE13=Roy Hall and His Blue Ridge Entertainers - The best of friends 
TTITLE13=must part someday
TTITLE14=The Blue Sky Boys - Alabama
TTITLE15=The Shelton Brothers - Just because
TTITLE16=The Monroe Brothers - Don't forget me
TTITLE17=The Stanley Brothers - The white dove
TTITLE18=Flatt and Scruggs - Baby blue eyes
TTITLE19=Bill Monroe - I'm on my way to the old home
EXTD=
EXTT0=
EXTT1=
EXTT2=
EXTT3=
EXTT4=
EXTT5=
EXTT6=
EXTT7=
EXTT8=
EXTT9=
EXTT10=
EXTT11=
EXTT12=
EXTT13=
EXTT14=
EXTT15=
EXTT16=
EXTT17=
EXTT18=
EXTT19=
PLAYORDER=
